<svg width="328" height="289" viewBox="0 0 328 289" fill="none" xmlns="http://www.w3.org/2000/svg">
<path d="M197.273 28.8206C221.621 21.7845 248.419 27.4546 268.094 43.5044C286.476 58.4997 291.232 82.8969 292.597 106.58C293.974 130.466 292.581 155.86 275.535 172.59C257.599 190.193 230.992 196.251 206.349 191.231C182.484 186.37 163.888 168.959 152.313 147.491C140.834 126.201 137.2 101.446 145.758 78.8571C154.688 55.2854 173.08 35.8118 197.273 28.8206Z" fill="#D4E0EE"/>
<path d="M113.147 80.7967C143.652 84.5736 167.244 106.561 184.122 132.279C200.304 156.935 208.946 186.27 201.017 214.685C192.938 243.639 170.914 266.016 143.427 278.124C114.795 290.736 81.9165 293.932 54.2394 279.339C25.6811 264.281 7.53118 235.346 1.93902 203.521C-3.7551 171.116 2.85287 136.939 24.9352 112.57C47.0252 88.1919 80.5187 76.7569 113.147 80.7967Z" fill="#DFE7F2"/>
<path d="M164.671 52.7222C196.85 56.5406 228.623 71.335 244.271 99.8224C259.676 127.868 252.271 161.244 240.666 191.077C228.962 221.16 212.246 252.15 181.42 261.382C150.744 270.568 119.749 254.099 94.004 234.998C69.6064 216.897 49.8757 192.236 47.3155 161.887C44.7163 131.076 58.3733 101.46 80.9659 80.4446C103.641 59.3524 133.974 49.0796 164.671 52.7222Z" fill="#5383BA"/>
</svg>
